<svg xmlns="http://www.w3.org/2000/svg" xmlns:xlink="http://www.w3.org/1999/xlink" viewBox="0,0,256,256" width="16px" height="16px" fill-rule="evenodd"><g fill="#aaaaaa" fill-rule="evenodd" stroke="none" stroke-width="1" stroke-linecap="butt" stroke-linejoin="miter" stroke-miterlimit="10" stroke-dasharray="" stroke-dashoffset="0" font-family="none" font-weight="none" font-size="none" text-anchor="none" style="mix-blend-mode: normal"><g transform="scale(0.05905,0.05905)"><path d="M671,58h1504v0h9v0h1504c328,0 596,268 596,596v3032c0,328 -268,596 -596,596h-1504v0h-9v0h-1504c-328,0 -596,-268 -596,-596v-3032c0,-328 268,-596 596,-596zM2900,1584h-1427c-49,0 -86,0 -86,67v11h-2v1226c0,147 96,235 232,247c0,118 0,237 0,356c0,69 1,102 34,140c121,137 307,33 307,-96v-399h217v0h9v0h217v399c0,129 186,233 307,96c34,-38 35,-71 34,-140c0,-118 0,-237 0,-356c136,-11 232,-100 232,-247v-1226h-2v-11c0,-58 -28,-67 -74,-67zM1490,1550h1382c57,-30 78,-85 41,-180c-41,-104 -107,-202 -185,-279l-129,-103c11,-45 152,-245 152,-290c0,-40 -37,-51 -73,-51c-41,0 -172,259 -189,290c-74,-35 -195,-65 -304,-65v0h-5h-5v0c-109,0 -231,30 -304,65c-16,-31 -148,-290 -189,-290c-35,0 -73,11 -73,51c0,45 142,245 152,290l-129,103c-78,77 -145,175 -185,279c-37,95 -16,150 41,180zM2550,1079c-54,0 -98,44 -98,98c0,54 44,98 98,98c54,0 98,-44 98,-98c0,-54 -44,-98 -98,-98zM3383,1924v560c0,88 -87,155 -168,157c-83,2 -173,-71 -173,-157v-704c0,-41 28,-90 50,-110c125,-113 291,58 291,254zM1811,1079c54,0 98,44 98,98c0,54 -44,98 -98,98c-54,0 -98,-44 -98,-98c0,-54 44,-98 98,-98zM978,1924v560c0,88 87,155 168,157c83,2 173,-71 173,-157v-704c0,-41 -28,-90 -50,-110c-125,-113 -291,58 -291,254z"></path></g></g></svg>