<svg xmlns="http://www.w3.org/2000/svg" xmlns:xlink="http://www.w3.org/1999/xlink" viewBox="0,0,256,256" width="16px" height="16px"><g fill="#aaaaaa" fill-rule="nonzero" stroke="none" stroke-width="1" stroke-linecap="butt" stroke-linejoin="miter" stroke-miterlimit="10" stroke-dasharray="" stroke-dashoffset="0" font-family="none" font-weight="none" font-size="none" text-anchor="none" style="mix-blend-mode: normal"><g transform="scale(2.56,2.56)"><path d="M24.12305,15.00781c-0.454,-0.055 -0.89664,0.21049 -1.05664,0.64649l-10.28125,27.9668c-0.094,0.254 -0.07989,0.5353 0.03711,0.7793c0.116,0.244 0.32798,0.42963 0.58398,0.51563l5.7793,1.93945l-5.56836,10.34375c-0.229,0.428 -0.11833,0.96072 0.26367,1.26172l9.91211,7.80273l-0.75,2.52148l-4.5332,15.91602c-0.103,0.36 0.0053,0.74986 0.2793,1.00586c0.188,0.176 0.43459,0.26953 0.68359,0.26953c0.114,0 0.2298,-0.0215 0.3418,-0.0625l21.11914,-7.66992l14.47266,9.3418c0.164,0.106 0.35397,0.1582 0.54297,0.1582c0.126,0 0.25305,-0.02131 0.37305,-0.07031l27.19141,-10.94336c0.368,-0.149 0.61395,-0.50048 0.62695,-0.89648l1.32617,-40.90039c0.00072,-0.02203 -0.00907,-0.04078 -0.00977,-0.0625c-0.00056,-0.02115 0.00776,-0.04131 0.00586,-0.0625c-0.00425,-0.04557 -0.02872,-0.08483 -0.03906,-0.12891c-0.01567,-0.06714 -0.03009,-0.13206 -0.05859,-0.19336c-0.02545,-0.05497 -0.06072,-0.10086 -0.0957,-0.15039c-0.04072,-0.05779 -0.08098,-0.11221 -0.13281,-0.16016c-0.0162,-0.01498 -0.02376,-0.03683 -0.04102,-0.05078l-21.99609,-17.79687c-0.424,-0.345 -1.04548,-0.28328 -1.39648,0.13672l-7.88672,9.46289l-6.95117,-7.93359c-0.162,-0.185 -0.38781,-0.30498 -0.63281,-0.33398zM24.66992,17.08789l20.94141,2.51172l7.35938,8.40039h-25.16797c-0.996,0 -1.80273,0.80673 -1.80273,1.80273v17.23047l-10.98242,-3.68555zM62.60742,18.50391l20.4375,16.5332l-13.04492,15.38477v-20.61914c0,-0.996 -0.80673,-1.80273 -1.80273,-1.80273h-12.56641l-0.48047,-0.54883zM26.60156,20.02539c-0.258,-0.021 -0.52088,0.17226 -0.54687,0.44727c-0.029,0.275 0.17227,0.51887 0.44727,0.54688l5.21875,0.52734c0.017,0.001 0.03278,0.00195 0.05078,0.00195c0.253,0 0.47109,-0.19222 0.49609,-0.44922c0.029,-0.275 -0.17227,-0.52083 -0.44727,-0.54883zM34.98633,20.89844c-0.269,-0.034 -0.52183,0.17031 -0.54883,0.44531c-0.03,0.275 0.17131,0.52083 0.44531,0.54883l9.04297,0.94531c0.018,0.002 0.03473,0.00195 0.05273,0.00195c0.252,0 0.47009,-0.19027 0.49609,-0.44727c0.03,-0.275 -0.17131,-0.52083 -0.44531,-0.54883zM28,30h40v40h-40zM33.0625,34v3.96875h2.96875v10.0625h-2.96875v3.7832h9.9375v-3.7832h-3.08203v-10.0625h3.05078v-3.96875zM54.02734,34v11.47266c0,1.105 -0.51,3.02539 -2.5,3.02539c-1.547,0 -2.80095,-1.31936 -3.25195,-1.81836l-2.49609,2.83984c0.67,0.796 2.43205,2.73828 5.74805,2.73828c1.989,0 4.15694,-0.97294 5.08594,-2.21094c1.326,-1.769 1.32617,-3.54053 1.32617,-4.64453l0.06055,-11.40234zM83.375,37.73633l-1.21289,37.38086l-26.10547,10.50586l-12.76172,-8.23633l4.81641,-1.75c0.203,-0.073 0.37809,-0.21253 0.49609,-0.39453l2.11133,-3.24219h17.47852c0.996,0 1.80273,-0.80673 1.80273,-1.80273v-16.68359zM21.10938,47.5l4.89063,1.64258v9.76172c-0.0092,0.02402 -0.02771,0.04135 -0.03516,0.06641l-1.55664,5.23047l-8.63281,-6.79297zM79.67969,53.24414c-0.319,0.011 -0.50853,0.20742 -0.51953,0.48242l-0.39648,10.91406c-0.01,0.277 0.20547,0.50658 0.48047,0.51758h0.01953c0.268,0 0.49,-0.21147 0.5,-0.48047l0.39648,-10.91406c0.01,-0.277 -0.20547,-0.50853 -0.48047,-0.51953zM32,64v3h16v-3zM26,65.85938v4.33789c0,0.996 0.80673,1.80273 1.80273,1.80273h20.5293l-1.21875,1.87109l-26.14258,9.49609l3.99219,-14.02344zM79.12891,68.37305c-0.319,0 -0.50853,0.20547 -0.51953,0.48047l-0.14062,3.88867l-6.46484,2.625c-0.256,0.103 -0.37939,0.39439 -0.27539,0.65039c0.078,0.195 0.26589,0.3125 0.46289,0.3125c0.063,0 0.1265,-0.01211 0.1875,-0.03711l6.76563,-2.74414c0.182,-0.073 0.3045,-0.24931 0.3125,-0.44531l0.15234,-4.21094c0.01,-0.277 -0.20547,-0.50853 -0.48047,-0.51953z"></path></g></g></svg>