<svg xmlns="http://www.w3.org/2000/svg" xmlns:xlink="http://www.w3.org/1999/xlink" viewBox="0,0,256,256" width="16px" height="16px" fill-rule="nonzero"><g fill="#aaaaaa" fill-rule="nonzero" stroke="none" stroke-width="1" stroke-linecap="butt" stroke-linejoin="miter" stroke-miterlimit="10" stroke-dasharray="" stroke-dashoffset="0" font-family="none" font-weight="none" font-size="none" text-anchor="none" style="mix-blend-mode: normal"><g transform="scale(5.12,5.12)"><path d="M24,1.9375c-4.64453,0 -7,3.36328 -7,10v5c0,0.37109 -0.10156,0.8125 -0.27734,1.16797c-0.05859,0.12109 -0.33984,0.51953 -0.58984,0.86719c-1.39062,1.94531 -4.46484,7.32031 -5.03516,13.16406c0.22266,-0.04297 0.44922,-0.07422 0.70313,-0.07422c0.61328,0 2.23047,0 4.80859,4.25391c0.49219,0.70703 0.75,1.14063 1.10547,1.73438c0.23828,0.40625 0.53125,0.90234 1,1.64844l0.02344,0.03516l0.02734,0.04297c0.26953,0.48047 0.55078,0.86328 0.82422,1.22656c0.15625,0.21094 0.31641,0.42969 0.47266,0.65625c0.61328,-0.24609 1.23828,-0.61328 1.60938,-1.14453c0.48828,-0.8125 0.43359,-1.77734 -0.14453,-2.64453c-0.23828,-0.36328 -0.67969,-0.62109 -1.73437,-1.22656c-0.63281,-0.35937 -1.41797,-0.80859 -1.77734,-1.11719c-0.83984,-0.71875 -2.01562,-2.28516 -2.01562,-3.52734c0,-2.65625 1.77734,-6.70703 3.20313,-9.10937c0.81641,-1.37109 1.4375,-2.42969 1.68359,-3.33203c0.14063,0.09766 0.29688,0.19141 0.51563,0.26563l0.03516,0.01172l0.03906,0.01172c0.69531,0.18359 1.39453,0.15234 1.84766,0.15234c0.94141,0 1.62109,-0.45312 2.25391,-0.83203c0.62109,-0.37891 1.23438,-0.73047 1.32422,-0.76172c0.45313,0.85547 1.03906,1.64844 1.64844,2.47266c1.67188,2.25 3.67969,6.03516 4.27344,11.65625c0.77734,-0.41016 1.22266,-0.53516 2.17578,-0.53516c0.01953,0 0.04297,0.00391 0.0625,0.00391c0.08594,-0.00391 0.16797,-0.01172 0.25391,-0.01172c0.25,0 0.50391,0.01563 0.75391,0.03906c0.58984,0.03516 1.37891,0.23828 1.84375,0.39844c0.78125,0.23047 1.42578,0.64063 1.87891,1.16406c0.40625,0.00391 0.79688,0.09766 1.15625,0.27344c0,-0.65234 0.05078,-1.60937 0.05078,-1.86719c0,-3.30078 -2.16406,-7.85547 -3.79297,-10.19141c-0.33594,-0.48437 -0.66016,-0.9375 -0.97266,-1.37109c-1.44141,-1.99609 -2.58203,-3.57422 -3.23437,-6.29297c-0.42969,-1.76562 -0.48828,-2.3125 -0.54687,-2.83984c-0.05469,-0.53125 -0.11719,-1.08594 -0.47266,-2.57812c-0.64844,-3.02344 -1.44922,-6.78906 -7.98047,-6.78906zM21,7.9375c1.10547,0 2,2.01172 2,3.67188c0,0.10156 -0.01172,0.26172 -0.01953,0.40625c-0.07422,-0.00391 -0.14844,-0.01562 -0.22656,-0.01562c-0.28516,0 -0.55078,0.04297 -0.80469,0.10938c-0.12109,-0.63672 -0.48828,-1.10937 -0.94922,-1.10937c-0.55078,0 -1,0.67188 -1,1.5c0,0.20313 0.02734,0.39453 0.07813,0.57031c-0.26953,0.20313 -0.47656,0.375 -0.59766,0.49609c-0.03516,0.03125 -0.0625,0.05469 -0.09375,0.08203c-0.07422,-0.15625 -0.13672,-0.31641 -0.19141,-0.49219c-0.11328,-0.69922 -0.19531,-1.54687 -0.19531,-1.54687c0,-1.66016 0.89453,-3.67187 2,-3.67187zM26,7.9375c1.10547,0 2,2.01172 2,3.67188c0,0.61719 -0.13281,1.34375 -0.34766,1.91797c-0.27734,-0.11719 -0.54297,-0.20703 -0.80859,-0.27344c0.08984,-0.22266 0.15625,-0.47266 0.15625,-0.75391c0,-0.82812 -0.44922,-1.5 -1,-1.5c-0.55078,0 -1,0.67188 -1,1.5c0,0.00391 0,0.00781 0,0.01172c-0.29687,-0.12109 -0.625,-0.23828 -0.96875,-0.32812c-0.01562,-0.21094 -0.03125,-0.42578 -0.03125,-0.57422c0,-1.66016 0.89453,-3.67187 2,-3.67187zM22.75391,14c0.40625,0 0.99609,0.16016 1.53516,0.37891c0.53906,0.21875 0.99609,0.46094 1.37891,0.62109l0.07813,0.03516l0.08203,0.01563c0.50781,0.12109 0.96484,0.25 1.15234,0.34766c-0.05078,0.42969 -0.10156,0.66406 -0.125,0.69922c-0.02734,0.04297 -0.16797,0.17578 -0.67969,0.44922c-0.63281,0.22656 -1.11328,0.59375 -1.62891,0.90625c-0.56641,0.33984 -1.14062,0.54688 -1.22266,0.54688c-0.4375,0 -1.04297,-0.03125 -1.28516,-0.08203c0.09375,0.02734 -0.07031,-0.05469 -0.27734,-0.24609c-0.22266,-0.21094 -0.5,-0.5 -0.78125,-0.80078l-0.07422,-0.07422l-0.07812,-0.05469c-0.32031,-0.22656 -0.57031,-0.42969 -0.69141,-0.57422c-0.125,-0.14844 -0.13672,-0.19141 -0.13672,-0.28906c0,-0.14844 -0.02734,-0.05859 0.0625,-0.16016c0.08984,-0.10547 0.36328,-0.32031 0.73438,-0.64844l0.03516,-0.02734l0.03125,-0.03516c-0.05469,0.05859 0.30859,-0.29687 0.70313,-0.55469c0.39453,-0.25781 0.88281,-0.45312 1.1875,-0.45312zM35.31641,33.99609c-0.93359,0 -1.58203,0.27734 -1.75781,0.5c0.40625,0.46875 0.65625,0.92188 0.91406,1.74219c0.27734,0.60938 0.97266,0.76172 1.52734,0.76172c1.69531,0 2.02344,-1.01953 2.55859,-1.59375c0,0 -0.14062,-0.15625 -0.14062,-0.30859c-0.14062,-0.30469 -0.55469,-0.60937 -1.10937,-0.76172c-0.41797,-0.15234 -1.11328,-0.30469 -1.39062,-0.30469c-0.21094,-0.02734 -0.41016,-0.03516 -0.60156,-0.03516zM11.80078,34.0625c-0.69531,0 -1.03906,0.34375 -1.50391,0.80859c-0.46484,0.46094 -0.95703,1.17969 -1.76953,1.75781c-0.71484,0.92969 -2.85156,0.03516 -3.46484,1.43359c-0.33984,0.76563 0.82813,1.77344 0.82813,3.50391c0,0.69531 -0.58203,1.15625 -0.69531,1.62109c-0.11719,0.57422 -0.23437,0.92188 0,1.38281c0.46094,0.69141 1.04297,0.92578 4.98438,1.73047c2.08594,0.46484 4.05859,1.62109 5.33203,1.73438c1.27344,0.11328 3.47656,0 3.47656,-3.11719c0.11719,-1.84766 -0.92578,-2.30859 -1.96875,-4.15625c-1.16016,-1.85156 -1.27344,-2.19531 -2.08594,-3.35156c-0.69531,-1.15625 -2.20312,-3.34766 -3.13281,-3.34766zM32.23438,36.05859c-0.23437,0.46875 -0.23437,0.82422 -0.23437,2.00391c0,0.94531 0,2.00781 -0.11719,2.83594c-0.23828,2.00781 -0.88281,2.91016 -0.88281,4.08984c0,1.30078 0.35547,2.12891 0.82813,2.48438c0.35156,0.35547 0.94531,0.58984 2.24609,0.58984c1.29688,0 2.125,-0.47266 2.95313,-1.29687c0.58984,-0.59375 1.0625,-0.82812 2.71875,-2.01172c1.29688,-0.82812 3.30859,-1.89062 3.66016,-2.24219c0.23828,-0.23828 0.59375,-0.35937 0.59375,-1.07031c0,-0.58984 -0.47266,-0.82422 -0.82812,-0.94141c-0.47266,-0.23828 -1.29687,-0.59375 -2.00781,-1.65625c-0.30859,-0.51172 -0.26172,-1.82812 -0.63281,-2.62891l-0.51172,0.55078c-0.05859,0.0625 -0.10937,0.14453 -0.16797,0.21875c-0.48437,0.65625 -1.49219,2.01563 -3.85156,2.01563c-1.54687,0 -2.79687,-0.72266 -3.34766,-1.9375l-0.05078,-0.10937l-0.03906,-0.12109c-0.125,-0.39844 -0.22656,-0.61328 -0.32812,-0.77344zM29.50391,42.44922c-0.95312,0.82031 -2.41016,1.61328 -4.50391,1.61328c-2.12891,0 -3.56641,-0.78516 -4.48047,-1.58984c0.31641,0.66406 0.52734,1.45313 0.46875,2.50781c0,0.37891 -0.03516,0.73828 -0.08984,1.08203h8.18359c-0.04687,-0.34375 -0.08203,-0.69531 -0.08203,-1.07422c0,-0.88281 0.21875,-1.60156 0.43359,-2.29687c0.02344,-0.07812 0.04688,-0.16406 0.07031,-0.24219z"></path></g></g></svg>