<svg xmlns="http://www.w3.org/2000/svg" xmlns:xlink="http://www.w3.org/1999/xlink" viewBox="0,0,256,256" width="16px" height="16px" fill-rule="nonzero"><g fill="#aaaaaa" fill-rule="nonzero" stroke="none" stroke-width="1" stroke-linecap="butt" stroke-linejoin="miter" stroke-miterlimit="10" stroke-dasharray="" stroke-dashoffset="0" font-family="none" font-weight="none" font-size="none" text-anchor="none" style="mix-blend-mode: normal"><g transform="scale(10.66667,10.66667)"><path d="M12,0c-0.192,0 -0.3828,0.0742 -0.5293,0.2207l-4.61523,4.61523c-0.00207,0.002 -0.00382,0.00384 -0.00586,0.00586l-6.62891,6.62695c-0.01622,0.01622 -0.02269,0.03741 -0.03711,0.05469c-0.03136,0.03662 -0.05611,0.07638 -0.08008,0.11914c-0.02626,0.04776 -0.04742,0.09518 -0.0625,0.14648c-0.0057,0.01885 -0.01918,0.03315 -0.02344,0.05274c-0.00529,0.02464 0.00279,0.04774 0,0.07226c-0.00632,0.05418 -0.00938,0.1059 -0.00391,0.16016c0.00466,0.04538 0.0128,0.08773 0.02539,0.13086c0.01315,0.04582 0.03069,0.08773 0.05273,0.13086c0.02535,0.0496 0.05422,0.09387 0.08984,0.13672c0.01494,0.01802 0.02218,0.03976 0.03906,0.05664l2.84375,2.84375c0.06974,0.12231 0.16673,0.21887 0.2832,0.2832l8.12305,8.12305c0.146,0.147 0.3373,0.2207 0.5293,0.2207c0.192,0 0.3833,-0.0737 0.5293,-0.2207l2.52539,-2.52539l8.72656,-8.72266c0.00761,-0.0076 0.01037,-0.01755 0.01758,-0.02539c0.05787,-0.06269 0.10784,-0.13342 0.14258,-0.2168c0.03838,-0.09217 0.05859,-0.19079 0.05859,-0.28906c0,-0.00062 0,-0.00133 0,-0.00195c0,-0.00064 0,-0.00131 0,-0.00195c-0.00048,-0.09594 -0.01928,-0.1897 -0.05469,-0.27734c-0.00053,-0.00132 -0.00141,-0.00259 -0.00195,-0.00391c-0.0371,-0.09037 -0.09221,-0.1737 -0.16211,-0.24414l-4.22266,-4.2207l-7.02734,-7.0293c-0.1465,-0.1465 -0.33925,-0.2207 -0.53125,-0.2207zM12,1.81055l1.17773,1.17773l-2.08203,3.12695l-2.39844,-1.00195zM14.25781,4.06836l1.77149,1.77148l-0.32812,2.19727l-3.19531,-1.33398zM7.55078,6.25977l2.69922,1.12695l-3.07227,4.61719l-2.08398,-3.28711zM17.34961,7.16016l0.42383,0.42383l-0.52344,0.24414zM11.6582,7.97461l2.79297,1.16602l-5.18359,2.42969zM18.90039,8.71094l1.13672,1.13672l-1.88477,-0.78711zM4.00781,9.80273l1.56641,2.47266l-3.32031,-0.71875zM16.90039,10.16211l5.0293,2.09766l-2.91992,2.91992l-2.76953,-0.59961zM15.35156,10.37305l-0.58203,3.88867l-5.2793,-1.14062zM3.08008,13.26953l1.75195,0.37891l-0.93555,0.4375zM8.75977,14.49805l5.78711,1.25195l-0.68555,4.57813l-0.85937,0.85938zM7.14648,14.75391l4.47656,7.05859l-5.50781,-5.50781zM5.04688,15.20508l-0.01172,0.01953l-0.00977,-0.00976zM16.01758,16.06836l1.73047,0.37305l-2.09961,2.09961z"></path></g></g></svg>