<svg xmlns="http://www.w3.org/2000/svg" xmlns:xlink="http://www.w3.org/1999/xlink" viewBox="0,0,256,256" width="24px" height="24px" fill-rule="nonzero"><g fill="#aaaaaa" fill-rule="nonzero" stroke="none" stroke-width="1" stroke-linecap="butt" stroke-linejoin="miter" stroke-miterlimit="10" stroke-dasharray="" stroke-dashoffset="0" font-family="none" font-weight="none" font-size="none" text-anchor="none" style="mix-blend-mode: normal"><g transform="scale(10.66667,10.66667)"><path d="M18.855,6.049v0c-0.036,0.027 -0.059,0.069 -0.059,0.117c0,0.015 0.002,0.029 0.006,0.042v-0.001c0.027,0.054 0.043,0.117 0.043,0.184c0,0.101 -0.036,0.194 -0.097,0.266l0.001,-0.001c-0.019,0.024 -0.03,0.054 -0.03,0.087c0,0.044 0.021,0.084 0.053,0.11c0.023,0.018 0.052,0.029 0.084,0.03c0.042,0 0.08,-0.02 0.106,-0.05c0.099,-0.119 0.16,-0.273 0.16,-0.442c0,-0.112 -0.027,-0.216 -0.074,-0.31c-0.025,-0.035 -0.066,-0.058 -0.112,-0.058c-0.03,0 -0.058,0.01 -0.081,0.026z"></path><path d="M19.049,6.082l-0.002,-0.004l0.001,0.003z"></path><path d="M13.527,0.099c-6.572,-0.843 -12.585,3.801 -13.428,10.374c-0.843,6.572 3.8,12.584 10.373,13.428c6.573,0.843 12.588,-3.801 13.429,-10.374c0.844,-6.572 -3.799,-12.584 -10.374,-13.428zM15.998,7.584c-0.232,0.003 -0.441,0.098 -0.593,0.25l-4.453,4.453l-0.95,-0.95c4.389,-4.376 5.181,-4.418 5.996,-3.753zM11.135,12.445l4.44,-4.44c0.113,-0.118 0.272,-0.192 0.449,-0.192c0.342,0 0.62,0.278 0.62,0.62c0,0.19 -0.086,0.361 -0.221,0.474l-0.001,0.001l-4.699,4.125zM11.465,13.139l-1.1,0.238c-0.004,0.001 -0.009,0.001 -0.013,0.001c-0.023,0 -0.044,-0.013 -0.054,-0.033c-0.005,-0.009 -0.008,-0.019 -0.008,-0.03c0,-0.017 0.007,-0.032 0.018,-0.043l0.645,-0.645zM8.662,12.68l1.172,-1.172l0.879,0.878l-1.979,0.426c-0.006,0.001 -0.012,0.002 -0.019,0.002c-0.029,0 -0.054,-0.017 -0.066,-0.041c-0.007,-0.011 -0.011,-0.024 -0.011,-0.039c0,-0.021 0.009,-0.041 0.024,-0.054zM5.016,18.737v0c-0.039,-0.003 -0.069,-0.035 -0.069,-0.075c0,-0.003 0,-0.005 0,-0.008c0.002,-0.018 0.01,-0.034 0.022,-0.046h0.002l0.946,-0.946l1.222,1.222zM7.442,17.482v0c-0.075,0.039 -0.124,0.115 -0.124,0.203c0,0.019 0.002,0.037 0.007,0.055v-0.002l0.203,0.865c0.002,0.009 0.004,0.019 0.004,0.03c0,0.069 -0.056,0.125 -0.125,0.125c-0.035,0 -0.067,-0.014 -0.09,-0.038h-0.003l-1.228,-1.229l3.762,-3.758l1.82,-0.393l0.874,0.874c-1.255,1.102 -2.971,2.201 -5.1,3.268zM12.72,14.054h-0.002l-0.839,-0.839l4.699,-4.125c0.043,-0.039 0.082,-0.08 0.117,-0.125l0.002,-0.002c-0.147,1.345 -2.029,3.245 -3.977,5.091zM17.662,8.126c-0.502,0 -0.956,-0.203 -1.285,-0.532h0.001l-0.003,-0.002c-0.328,-0.329 -0.531,-0.784 -0.531,-1.285c0,-1.006 0.816,-1.822 1.822,-1.822c0.446,0 0.854,0.16 1.17,0.426l-0.003,-0.002l-1.61,1.613c-0.022,0.022 -0.035,0.051 -0.035,0.084c0,0.033 0.013,0.063 0.035,0.084l1.247,1.247c-0.236,0.119 -0.514,0.189 -0.808,0.189zM18.956,7.594c-0.081,0.08 -0.169,0.151 -0.265,0.214l-0.006,0.004h-0.001l-1.207,-1.207l1.533,-1.533c0.661,0.72 0.637,1.832 -0.054,2.522z"></path></g></g></svg>