<svg xmlns="http://www.w3.org/2000/svg" xmlns:xlink="http://www.w3.org/1999/xlink" viewBox="0,0,256,256" width="16px" height="16px" fill-rule="nonzero"><g fill="#aaaaaa" fill-rule="nonzero" stroke="none" stroke-width="1" stroke-linecap="butt" stroke-linejoin="miter" stroke-miterlimit="10" stroke-dasharray="" stroke-dashoffset="0" font-family="none" font-weight="none" font-size="none" text-anchor="none" style="mix-blend-mode: normal"><g transform="scale(5.12,5.12)"><path d="M49.324,7.34c-0.94,-1.17 -2.61,-1.32 -3.96,-1.33c-3.929,-0.01 -28.786,-0.01 -32.386,0c-3.999,0.01 -5.579,1.27 -6.479,5.17c-2.09,9.01 -4.169,18.03 -6.229,27.05c-0.31,1.37 -0.55,3.11 0.42,4.33c0.99,1.24 2.79,1.41 4.249,1.41c5.159,0.02 26.657,0.02 32.376,0c3.55,-0.01 5.469,-1.51 6.239,-4.88c2.28,-9.98 4.309,-19.02 6.199,-27.64c0.291,-1.3 0.501,-2.95 -0.429,-4.11zM14.758,38.28c-1.2,0.88 -2.34,1.11 -3.3,-0.2c-1.07,-1.45 -0.08,-2.31 1.02,-3.12c3.96,-2.89 7.909,-5.8 11.839,-8.72c0.55,-0.41 1.27,-0.97 1.74,-1.32c-0.61,-0.69 -1.12,-1.26 -1.53,-1.73c-2.43,-2.73 -4.659,-5.27 -7.069,-7.87c-1.1,-1.19 -1.45,-2.34 -0.13,-3.52c1.31,-1.16 2.6,-1.06 3.789,0.28c3.34,3.72 6.679,7.44 10.069,11.1c1.27,1.37 0.98,2.3 -0.42,3.32c-5.359,3.89 -10.689,7.83 -16.008,11.78zM32.246,38h-9.499c-1.13,0 -1.75,-1 -1.75,-2c0,-1 0.62,-2 1.75,-2h9.499c1.13,0 1.75,1 1.75,2c0,1 -0.62,2 -1.75,2z"></path></g></g></svg>