<svg xmlns="http://www.w3.org/2000/svg" xmlns:xlink="http://www.w3.org/1999/xlink" viewBox="0,0,256,256" width="16px" height="16px" fill-rule="nonzero"><g fill="#abbaab" fill-rule="nonzero" stroke="none" stroke-width="1" stroke-linecap="butt" stroke-linejoin="miter" stroke-miterlimit="10" stroke-dasharray="" stroke-dashoffset="0" font-family="none" font-weight="none" font-size="none" text-anchor="none" style="mix-blend-mode: normal"><g transform="scale(8,8)"><path d="M21.69922,2.66016l-3.81836,2.7207l-3.85742,-2.54492l-7.30859,3.94531l-3.84375,15.61719l9.18555,6.9668l3.01563,-3.52539l5.13477,3.18945l9.53906,-2.19922l-3.76562,-7.82422l2.81445,-5.66992l-3.79492,-3.14648v-3.18945h-2.28516zM13.92188,5.16406l2.21289,1.45898l-0.5293,0.37695h-5.08594zM20.43164,6.01758l0.22852,0.98242h-1.60742zM9,9h14v14h-14zM11.0918,11.10352v5.46875h1.19141v-1.6582h0.92969c1.226,0 2.2207,-0.66287 2.2207,-1.92187c0,-1.127 -0.76189,-1.88867 -2.08789,-1.88867zM19.08594,11.18555c-0.753,-0.017 -1.48262,0.27559 -2.01563,0.80859c-0.533,0.533 -0.82364,1.26067 -0.80664,2.01367c-0.009,0.745 0.28069,1.46219 0.80469,1.99219c0.524,0.53 1.23742,0.83008 1.98242,0.83008c1.05,0 1.67247,-0.39438 2.23047,-0.98437l-0.75391,-0.75391c-0.427,0.361 -0.82036,0.62305 -1.44336,0.62305c-0.919,0 -1.57422,-0.78803 -1.57422,-1.70703c0,-0.951 0.65522,-1.70508 1.57422,-1.70508c0.525,0 0.95191,0.23005 1.37891,0.62305l0.75391,-0.88672c-0.492,-0.525 -1.11386,-0.85351 -2.13086,-0.85351zM12.2832,12.23047h0.92969c0.63,0 0.99219,0.29908 0.99219,0.83008c0,0.464 -0.30994,0.86133 -0.96094,0.86133h-0.96094zM25,12.78711l1.30078,1.07813l-1.30078,2.61719zM7,13.99219v9.02734l-1.87109,-1.41992zM10.93555,20v1h6v-1zM25,21.58008l1.85938,3.86328l-6.29687,1.45313l-3.05273,-1.89648h7.49023zM9.60938,25h3.54883l-1.39453,1.63281z"></path></g></g></svg>