<svg xmlns="http://www.w3.org/2000/svg" xmlns:xlink="http://www.w3.org/1999/xlink" viewBox="0,0,256,256" width="16px" height="16px"><g fill="#aaaaaa" fill-rule="nonzero" stroke="none" stroke-width="1" stroke-linecap="butt" stroke-linejoin="miter" stroke-miterlimit="10" stroke-dasharray="" stroke-dashoffset="0" font-family="none" font-weight="none" font-size="none" text-anchor="none" style="mix-blend-mode: normal"><g transform="scale(4,4)"><path d="M8,8v48h48v-48zM12,12h40v12h-40zM23.16406,27.78906c1.075,0 2.02148,0.21134 2.77148,0.77734l-0.52344,1.86719c-0.665,-0.552 -1.29972,-0.77734 -2.26172,-0.77734c-0.82,0 -1.38672,0.2827 -1.38672,0.7207c0,0.608 0.63594,0.919 1.71094,1.5c1.711,0.919 2.88672,1.78123 2.88672,3.36523c0.001,2.052 -1.3295,2.98633 -3.4375,2.98633c-1.032,0 -2.24898,-0.33894 -3.08398,-0.96094l0.70898,-1.76953c0.692,0.523 1.53964,0.90625 2.43164,0.90625c1.019,0 1.48633,-0.49577 1.48633,-1.25977c0,-0.679 -0.62397,-0.98967 -1.54297,-1.51367c-1.146,-0.651 -2.95508,-1.20259 -2.95508,-3.18359c0,-1.726 1.52631,-2.6582 3.19531,-2.6582zM32.47266,27.79102c2.391,0 4.11719,1.98008 4.11719,5.20508c0,1.613 -0.41019,2.91336 -1.11719,3.81836l0.75,0.97656l-1.37305,1.08984l-0.70703,-1.00391c-0.48,0.227 -1.01898,0.35352 -1.58398,0.35352c-2.391,0 -4.20117,-1.93838 -4.20117,-5.23437c0,-3.225 1.75323,-5.20508 4.11523,-5.20508zM38.85547,27.93164h1.82617v8.35938h4.07227v1.79688h-5.89844zM32.47266,29.58594c-1.357,0 -2.31836,1.1315 -2.31836,3.4375c0,2.292 1.03136,3.42187 2.31836,3.42187c0.198,0 0.38241,-0.02731 0.56641,-0.07031l-1.35742,-1.76758l1.35742,-1.16016l1.28711,1.83789c0.297,-0.552 0.4668,-1.31372 0.4668,-2.26172c0,-2.305 -0.83531,-3.4375 -2.32031,-3.4375zM12,42h40v10h-40z"></path></g></g></svg>